<?xml version="1.0" standalone="no"?>
<!DOCTYPE svg PUBLIC "-//W3C//DTD SVG 1.0//EN" "http://www.w3.org/TR/2001/REC-SVG-20010904/DTD/svg10.dtd">
<svg xmlns="http://www.w3.org/2000/svg" xmlns:xlink="http://www.w3.org/1999/xlink" id="body_1" width="60" height="60">

<defs>
    <linearGradient transform="matrix(1 0 0 1 0 0)"  id="1" x1="328.27" y1="508.05" x2="183.73" y2="3.95">
        <stop stop-color="#FFDB73" offset="0%"/>
        <stop stop-color="#4264DB" offset="100%"/>
    </linearGradient>
</defs>

<g transform="matrix(1.4285715 0 0 1.4285715 0 0)">
	<g transform="matrix(0.105000004 0 0 0.105000004 0 0)">
		<g transform="matrix(0.39 0 0 0.39 200 200)">
            <path d="M-232.53 -125.299995C -232.53 -184.52148 -184.52148 -232.53 -125.299995 -232.53L-125.299995 -232.53L125.299995 -232.53C 184.52148 -232.53 232.53 -184.52148 232.53 -125.299995L232.53 -125.299995L232.53 125.299995C 232.53 184.52148 184.52148 232.53 125.299995 232.53L125.299995 232.53L-125.299995 232.53C -184.52148 232.53 -232.53 184.52148 -232.53 125.299995L-232.53 125.299995L-232.53 -125.299995z" stroke="none" fill="url(#1)" />
		</g>
		<g transform="matrix(0.39 0 0 0.39 200 200)">
            <path transform="matrix(1 0 0 1 -256 -256)"  d="M331 115.22C 367.74832 115.36798 397.50204 145.1217 397.65 181.87L397.65 181.87L397.65 330.13C 397.50204 366.87833 367.74832 396.63205 331 396.78L331 396.78L181 396.78C 144.2517 396.63205 114.49797 366.87833 114.35 330.13L114.35 330.13L114.35 181.87C 114.49797 145.12167 144.2517 115.367966 181 115.22L181 115.22L331 115.22zM331 84.22L181 84.22C 127.29 84.22 83.34 128.22 83.34 181.88L83.34 181.88L83.34 330.13C 83.34 383.84 127.34 427.79 181 427.79L181 427.79L331 427.79C 384.71 427.79 428.66 383.79 428.66 330.13L428.66 330.13L428.66 181.87C 428.66 128.16 384.71 84.20999 331 84.20999z" stroke="none" fill="#FFFFFF" fill-rule="nonzero" />
		</g>
		<g transform="matrix(0.39 0 0 0.39 200 200)">
            <path transform="matrix(1 0 0 1 -256 -256)"  d="M256 198.13C 279.40622 198.13 300.50772 212.22957 309.4649 233.85411C 318.4221 255.47865 313.47098 280.36957 296.9203 296.92026C 280.36957 313.47098 255.47865 318.4221 233.85411 309.4649C 212.22958 300.50772 198.13 279.40622 198.13 256C 198.16856 224.05527 224.05527 198.16856 256 198.13zM256 167.13C 220.05545 167.13 187.6502 188.78247 173.89484 221.99092C 160.13943 255.19937 167.74277 293.42392 193.15941 318.84058C 218.57605 344.2572 256.80063 351.86057 290.00906 338.10516C 323.21753 324.3498 344.87 291.94455 344.87 256C 344.87 206.91844 305.08154 167.13 256 167.13z" stroke="none" fill="#FFFFFF" fill-rule="nonzero" />
		</g>
		<g transform="matrix(0.39 0 0 0.39 235.47 163.76)">
            <path d="M21.07 0C 21.07 5.8183203 19.012913 10.784567 14.89874 14.89874C 10.784567 19.012913 5.8183203 21.07 0 21.07C -5.8183203 21.07 -10.784567 19.012913 -14.89874 14.89874C -19.012913 10.784567 -21.07 5.8183203 -21.07 0C -21.07 -5.8183203 -19.012913 -10.784567 -14.89874 -14.89874C -10.784567 -19.012913 -5.8183203 -21.07 0 -21.07C 5.8183203 -21.07 10.784567 -19.012913 14.89874 -14.89874C 19.012913 -10.784567 21.07 -5.8183203 21.07 0C 21.07 0.2451855 21.065723 0.4902963 21.057165 0.73533237" stroke="none" fill="#FFFFFF" fill-rule="nonzero" />
		</g>
	</g>
</g>
</svg>