<?xml version="1.0" standalone="no"?>
<!DOCTYPE svg PUBLIC "-//W3C//DTD SVG 1.0//EN" "http://www.w3.org/TR/2001/REC-SVG-20010904/DTD/svg10.dtd">
<svg xmlns="http://www.w3.org/2000/svg" xmlns:xlink="http://www.w3.org/1999/xlink" id="body_1" width="60" height="60">

<g transform="matrix(0.15 0 0 0.15 0 0)">
	<g transform="matrix(0.39 0 0 0.39 200.01 200)">
        <path transform="matrix(1 0 0 1 -256.01 -256)"  d="M485 29.72C 496.45 44.85 501.61 69.93 504.15 100.42C 507.50998 145.92 508.86 200.51999 510.15 256.94C 508.47998 314.41 507.8 372.37 504.15 413.46002C 501.27 445.00003 495.15 466.12003 484.93 478.93002C 471.93 491.72003 446.99 502.52002 411.43 505.08002C 368.18 508.77002 314.82 508.73 255.95 510.18002C 190.51 509.06003 146.13 509.54 99.56999 505.10004C 63.249992 502.58005 39.48999 491.91003 24.869995 479.03003C 14.039995 464.49002 10.869995 449.03003 7.869995 412.79004C 4.119995 370.94003 3.2899952 314.23004 1.8699951 257.25006C 4 200.57 4.13 143.44 7.9 100.74C 10.43 67.05 14.42 44.4 24.65 30C 39 17.77 63.48 11.69 100 8.69C 150 2.8399997 202.06 1.6899996 255.88 1.8199997C 311.27002 1.9099997 364.44 3.4899998 411.88 8.16C 443.88 10.719999 470.36002 16.23 484.95 29.72L484.95 29.72L485 29.72z" stroke="none" fill="#2CA3DB" fill-rule="nonzero" />
	</g>
	<g transform="matrix(0.39 0 0 0.39 197.56 197.25)">
        <path transform="matrix(1 0 0 1 -249.8 -249.01)"  d="M378.92 125.44L114.44 227.44C 96.39 234.68001 96.5 244.75 111.15 249.24L111.15 249.24L177.15 269.83002L202.39 347.21002C 205.46 355.68002 203.95 359.04 212.84 359.04C 219.7 359.04 222.75 355.91 226.56999 352.18002C 228.99998 349.80002 243.43 335.77002 259.57 320.10004L259.57 320.10004L328.18 370.80005C 340.81 377.80005 349.91998 374.16003 353.07 359.07004L353.07 359.07004L398.07 146.83003C 402.66 128.35 391 120 378.92 125.44zM187.46 265.11L336.14 171.30998C 343.56003 166.80998 350.37003 169.22998 344.78003 174.18999L344.78003 174.18999L217.48 289.05L212.48 341.91998z" stroke="none" fill="#FFFFFF" fill-rule="nonzero" />
	</g>
</g>
</svg>