<?xml version="1.0" encoding="UTF-8" standalone="no" ?>
<!DOCTYPE svg PUBLIC "-//W3C//DTD SVG 1.1//EN" "http://www.w3.org/Graphics/SVG/1.1/DTD/svg11.dtd">
<svg xmlns="http://www.w3.org/2000/svg" xmlns:xlink="http://www.w3.org/1999/xlink" version="1.1" width="65" height="65" viewBox="0 0 400 400" xml:space="preserve">
<desc>Created with Fabric.js 3.6.2</desc>
<defs>
</defs>
<g transform="matrix(0.39 0 0 0.39 200.43 200.16)" id="Layer_1"  >
<linearGradient id="SVGID_SVGID_1__1" gradientUnits="userSpaceOnUse" gradientTransform="matrix(1 0 0 -1 -41.66 349.04)"  x1="61.491" y1="328.2375" x2="653.8826" y2="-264.1542">
<stop offset="0%" style="stop-color:rgb(17,164,220);stop-opacity: 1"/>
<stop offset="50.51%" style="stop-color:rgb(15,148,201);stop-opacity: 1"/>
<stop offset="100%" style="stop-color:rgb(12,130,180);stop-opacity: 1"/>
</linearGradient>
<path style="stroke: none; stroke-width: 1; stroke-dasharray: none; stroke-linecap: butt; stroke-dashoffset: 0; stroke-linejoin: miter; stroke-miterlimit: 4; fill: url(#SVGID_SVGID_1__1); fill-rule: nonzero; opacity: 1;"  transform=" translate(-257.1, -256.4)" d="M 316.78 251.983 c -6.487 -4.22 -14.41 -7.829 -23.604 -10.772 c -9.059 -2.908 -19.331 -5.586 -30.491 -7.988 c -8.818 -2.037 -15.246 -3.608 -19.072 -4.68 c -3.738 -1.024 -7.488 -2.466 -11.108 -4.297 c -3.484 -1.76 -6.257 -3.844 -8.211 -6.251 c -1.866 -2.26 -2.772 -4.874 -2.772 -8.023 c 0 -5.127 2.802 -9.453 8.553 -13.215 c 5.969 -3.926 14.015 -5.904 23.893 -5.904 c 10.648 0 18.395 1.772 23.039 5.31 c 4.774 3.632 8.936 8.788 12.374 15.311 c 2.973 5.115 5.651 8.671 8.229 10.972 c 2.772 2.437 6.775 3.691 11.879 3.691 c 5.621 0 10.377 -1.99 14.163 -5.91 c 3.761 -3.914 5.657 -8.394 5.657 -13.327 c 0 -5.115 -1.448 -10.413 -4.297 -15.723 c -2.837 -5.274 -7.358 -10.331 -13.416 -15.075 c -6.021 -4.703 -13.68 -8.529 -22.774 -11.355 c -9.047 -2.796 -19.866 -4.232 -32.181 -4.232 c -15.417 0 -29.032 2.149 -40.469 6.381 c -11.596 4.273 -20.608 10.537 -26.771 18.583 c -6.216 8.088 -9.365 17.489 -9.365 27.907 c 0 10.937 3.008 20.214 8.924 27.636 c 5.828 7.287 13.798 13.127 23.699 17.341 c 9.671 4.103 21.821 7.741 36.148 10.802 c 10.519 2.207 19.031 4.326 25.294 6.275 c 6.016 1.89 10.955 4.603 14.728 8.117 c 3.573 3.373 5.309 7.641 5.309 13.085 c 0 6.887 -3.32 12.52 -10.195 17.206 c -7.028 4.803 -16.382 7.234 -27.79 7.234 c -8.276 0 -15.022 -1.207 -20.025 -3.567 c -4.968 -2.355 -8.853 -5.363 -11.566 -8.953 c -2.82 -3.703 -5.475 -8.429 -7.923 -14.039 c -2.196 -5.139 -4.909 -9.124 -8.082 -11.826 c -3.32 -2.802 -7.411 -4.215 -12.149 -4.215 c -5.78 0 -10.619 1.801 -14.398 5.357 c -3.814 3.585 -5.745 7.97 -5.745 13.015 c 0 8.094 2.967 16.476 8.818 24.911 c 5.804 8.388 13.438 15.157 22.709 20.155 c 12.956 6.875 29.573 10.366 49.381 10.366 c 16.494 0 30.992 -2.555 43.088 -7.582 c 12.22 -5.074 21.65 -12.232 28.019 -21.256 c 6.404 -9.047 9.66 -19.419 9.66 -30.756 c 0 -9.501 -1.884 -17.671 -5.61 -24.293 C 328.612 261.795 323.378 256.28 316.78 251.983 z" stroke-linecap="round" />
</g>
<g transform="matrix(0.39 0 0 0.39 200 200)" id="Layer_1"  >
<linearGradient id="SVGID_SVGID_2__2" gradientUnits="userSpaceOnUse" gradientTransform="matrix(1 0 0 -1 -41.66 349.04)"  x1="61.9769" y1="328.7231" x2="654.3685" y2="-263.6686">
<stop offset="0%" style="stop-color:rgb(17,164,220);stop-opacity: 1"/>
<stop offset="50.51%" style="stop-color:rgb(15,148,201);stop-opacity: 1"/>
<stop offset="100%" style="stop-color:rgb(12,130,180);stop-opacity: 1"/>
</linearGradient>
<path style="stroke: none; stroke-width: 1; stroke-dasharray: none; stroke-linecap: butt; stroke-dashoffset: 0; stroke-linejoin: miter; stroke-miterlimit: 4; fill: url(#SVGID_SVGID_2__2); fill-rule: nonzero; opacity: 1;"  transform=" translate(-256, -256)" d="M 348.489 35.511 H 163.511 c -70.692 0 -128 57.308 -128 128 v 184.978 c 0 70.692 57.308 128 128 128 h 184.978 c 70.693 0 128 -57.308 128 -128 V 163.511 C 476.489 92.819 419.182 35.511 348.489 35.511 z M 320.601 402.633 c -13.68 0 -26.547 -3.438 -37.814 -9.483 c -8.188 1.513 -16.611 2.307 -25.247 2.307 c -76.176 0 -137.912 -61.742 -137.912 -137.918 c 0 -9.495 0.954 -18.778 2.79 -27.731 c -6.97 -11.873 -10.99 -25.688 -10.99 -40.445 c 0 -44.183 35.807 -79.996 79.984 -79.996 c 15.634 0 30.227 4.515 42.541 12.285 c 7.682 -1.313 15.558 -2.013 23.593 -2.013 c 76.169 0 137.906 61.742 137.906 137.9 c 0 10.16 -1.089 20.043 -3.173 29.603 c 5.31 10.707 8.3 22.751 8.294 35.513 C 400.573 366.826 364.771 402.633 320.601 402.633 z" stroke-linecap="round" />
</g>
</svg>