<?xml version="1.0" standalone="no"?>
<!DOCTYPE svg PUBLIC "-//W3C//DTD SVG 1.0//EN" "http://www.w3.org/TR/2001/REC-SVG-20010904/DTD/svg10.dtd">
<svg xmlns="http://www.w3.org/2000/svg" xmlns:xlink="http://www.w3.org/1999/xlink" id="body_1" width="60" height="60">

<g transform="matrix(0.15 0 0 0.15 0 0)">
	<g transform="matrix(0.39 0 0 0.39 199.9 200.19)">
        <path transform="matrix(1 0 0 1 -255.74 -256.49)"  d="M492.871 374.948C 492.871 440.399 439.782 493.45 374.306 493.45L374.306 493.45L137.168 493.45C 71.671 493.45 18.601997 440.39902 18.601997 374.948L18.601997 374.948L18.601997 138.009C 18.601997 72.55801 71.671 19.526001 137.168 19.526001L137.168 19.526001L374.305 19.526001C 439.78198 19.526001 492.87 72.558 492.87 138.009L492.87 138.009L492.87 374.948L492.871 374.948z" stroke="none" fill="#00C451" fill-rule="nonzero" />
	</g>
	<g transform="matrix(0.39 0 0 0.39 199.9 200.19)">
        <path transform="matrix(1 0 0 1 -255.74 -256.49)"  d="M403.947 252.692C 403.947 332.36902 338.79797 396.971 258.42297 396.971C 232.90997 396.971 208.94197 390.45102 188.08096 379.017L188.08096 379.017L107.52596 404.587L133.79095 327.181C 120.53395 305.429 112.90996 279.934 112.90996 252.672C 112.90996 172.98999 178.05997 108.388 258.42194 108.388C 338.798 108.389 403.947 172.991 403.947 252.692zM258.423 131.375C 190.956 131.375 136.08801 185.794 136.08801 252.692C 136.08801 279.221 144.753 303.809 159.39001 323.806L159.39001 323.806L144.11601 368.854L191.13101 353.909C 210.447 366.579 233.58601 373.983 258.423 373.983C 325.888 373.983 380.772 319.564 380.772 252.672C 380.771 185.795 325.888 131.375 258.423 131.375zM331.909 285.913C 331.001 284.429 328.62698 283.541 325.076 281.78598C 321.507 280.01297 303.964 271.44998 300.70398 270.274C 297.42197 269.097 295.04898 268.5 292.65497 272.047C 290.28198 275.595 283.45197 283.54 281.36697 285.912C 279.28296 288.26498 277.218 288.555 273.64697 286.79898C 270.07797 285.02597 258.57596 281.28397 244.95097 269.232C 234.35698 259.865 227.19698 248.295 225.11298 244.76599C 223.02898 241.21799 224.90097 239.30798 226.67697 237.53499C 228.27797 235.954 230.24698 233.40799 232.02197 231.34499C 233.81697 229.28198 234.41498 227.81598 235.59198 225.44398C 236.78798 223.09099 236.18999 221.02698 235.30098 219.25398C 234.41399 217.47998 227.27399 200.08498 224.30098 193.00798C 221.32898 185.92998 218.35799 187.10698 216.27298 187.10698C 214.18898 187.10698 211.81497 186.79797 209.44199 186.79797C 207.04898 186.79797 203.18999 187.68497 199.92798 191.23398C 196.64697 194.76299 187.44798 203.32597 187.44798 220.71898C 187.44798 238.13298 200.21799 254.94798 202.01198 257.30096C 203.78697 259.65396 226.67497 296.51996 262.93497 310.69397C 299.21396 324.84897 299.21396 320.12497 305.73697 319.52698C 312.27896 318.94797 326.84897 310.98398 329.82196 302.72998C 332.796 294.456 332.796 287.38 331.909 285.913z" stroke="none" fill="#FFFFFF" fill-rule="nonzero" />
	</g>
	<g transform="matrix(0.39 0 0 0.39 199.9 200.19)">
        <path transform="matrix(1 0 0 1 -255.74 -256.49)"  d="M258.423 108.389C 338.798 108.389 403.94702 172.991 403.94702 252.693C 403.94702 332.37 338.79803 396.972 258.42303 396.972C 232.91003 396.972 208.94203 390.452 188.08102 379.01797L188.08102 379.01797L107.526024 404.58798L133.79102 327.18198C 120.53401 305.42996 112.91002 279.93497 112.91002 252.67297C 112.911 172.991 178.061 108.389 258.423 108.389zM144.116 368.854L191.131 353.909C 210.44699 366.579 233.586 373.983 258.423 373.983C 325.888 373.983 380.772 319.564 380.772 252.672C 380.772 185.794 325.888 131.375 258.423 131.375C 190.956 131.375 136.08801 185.794 136.08801 252.692C 136.08801 279.221 144.753 303.809 159.39001 323.806L159.39001 323.806L144.116 368.854zM209.444 186.798C 211.818 186.798 214.191 187.10701 216.275 187.10701C 216.795 187.10701 217.37 187.03401 217.987 187.03401C 219.842 187.03401 222.072 187.697 224.303 193.00902C 227.276 200.08601 234.416 217.48102 235.303 219.25502C 236.192 221.02902 236.79 223.09302 235.594 225.44502C 234.41699 227.81702 233.819 229.28203 232.02399 231.34602C 230.249 233.40903 228.27998 235.95502 226.67899 237.53603C 224.90298 239.31003 223.03099 241.22003 225.11499 244.76703C 227.19899 248.29604 234.359 259.86603 244.95299 269.23303C 258.578 281.28604 270.07898 285.02704 273.649 286.80002C 275.17798 287.55203 276.431 287.92902 277.529 287.92902C 278.992 287.92902 280.177 287.25803 281.369 285.91302C 283.45398 283.54102 290.284 275.59604 292.65698 272.04803C 294.011 270.04202 295.357 269.36102 296.866 269.36102C 298.025 269.36102 299.28 269.76202 300.706 270.27402C 303.966 271.45 321.509 280.01202 325.078 281.786C 328.629 283.54102 331.003 284.42902 331.911 285.91302C 332.798 287.38004 332.798 294.45602 329.82602 302.72903C 326.85303 310.98303 312.28302 318.94702 305.74103 319.52603C 302.99802 319.77704 301.40903 320.75803 297.79004 320.75803C 292.80304 320.75803 283.96204 318.89502 262.93903 310.69302C 226.67903 296.519 203.79103 259.653 202.01602 257.30002C 200.22202 254.94702 187.45203 238.13202 187.45203 220.71802C 187.45203 203.32402 196.65202 194.76202 199.93202 191.23302C 203.191 187.685 207.051 186.798 209.444 186.798zM258.423 98.512C 216.934 98.512 177.923 114.537 148.576 143.637C 119.207 172.758 103.034004 211.482 103.034004 252.674C 103.034004 279.254 109.91801 305.29498 122.985 328.292L122.985 328.292L98.173004 401.41498C 96.976006 404.942 97.865005 408.84396 100.47301 411.50397C 102.36001 413.42798 104.91401 414.46597 107.52701 414.46597C 108.52601 414.46597 109.533005 414.31497 110.51401 414.00296L110.51401 414.00296L187.11801 389.68695C 209.05602 400.92694 233.61401 406.84995 258.422 406.84995C 299.916 406.84995 338.931 390.82495 368.279 361.72595C 397.64798 332.60596 413.823 293.88394 413.823 252.69395C 413.823 211.49295 397.648 172.76295 368.279 143.64096C 338.934 114.538 299.918 98.512 258.423 98.512zM159.744 353.522L168.744 326.978C 169.77701 323.93 169.261 320.57 167.36 317.972C 153.363 298.84998 145.965 276.276 145.965 252.69199C 145.965 191.24399 196.414 141.25198 258.423 141.25198C 320.44 141.25198 370.89502 191.23499 370.89502 252.67198C 370.89502 314.11597 320.44 364.106 258.42303 364.106C 236.35204 364.106 214.95604 357.724 196.54803 345.65C 194.92104 344.583 193.03403 344.03198 191.13104 344.03198C 190.12704 344.03198 189.11804 344.185 188.13904 344.49597L188.13904 344.49597L159.744 353.522zM209.444 176.921C 203.242 176.921 197.133 179.692 192.679 184.52701C 192.505 184.714 192.313 184.91602 192.105 185.13501C 188.131 189.322 177.573 200.44301 177.573 220.71802C 177.573 239.43102 189.07199 256.6 194.095 263.203C 194.211 263.368 194.38 263.618 194.602 263.945C 212.889 290.851 235.88 310.72 259.342 319.891C 283.60602 329.358 292.393 330.634 297.78802 330.634C 301.10803 330.634 303.39502 330.083 305.06503 329.68C 305.83704 329.494 306.25702 329.396 306.64005 329.361C 311.58203 328.923 318.25003 326.291 324.44705 322.322C 329.67606 318.972 336.46606 313.435 339.11707 306.07498C 339.75006 304.313 345.13806 288.702 340.36105 280.80197C 340.35205 280.78696 340.34305 280.77298 340.33405 280.75797C 338.07205 277.05997 334.59503 275.39896 331.23206 273.79095C 330.67905 273.52695 330.08606 273.24396 329.45206 272.93097C 329.26605 272.83798 308.45706 262.57098 304.05606 260.98297C 302.02405 260.25397 299.64206 259.48398 296.86505 259.48398C 293.37604 259.48398 288.39307 260.705 284.46906 266.52298C 283.07104 268.61398 279.15607 273.348 276.00507 277.02298C 275.74307 276.90897 275.47208 276.79297 275.19107 276.671C 270.47806 274.642 261.70807 270.866 251.49808 261.83398C 244.12907 255.31798 238.52708 247.50098 235.41309 242.64899C 236.24309 241.70898 237.06609 240.71599 237.87209 239.74199C 238.42209 239.07799 238.9701 238.415 239.50009 237.79799C 241.89609 235.038 242.98209 232.816 244.03209 230.66599C 244.15709 230.41199 244.28609 230.14598 244.42409 229.86899C 246.08409 226.57698 247.36708 221.31999 244.15909 214.87698C 243.51608 213.51398 239.83209 204.63199 237.39009 198.74498C 235.85709 195.04997 234.40309 191.54398 233.41109 189.18198C 230.06108 181.20297 224.87209 177.15598 217.99008 177.15598C 217.35107 177.15598 216.81808 177.18997 216.42809 177.21498C 216.35309 177.21999 216.28009 177.22498 216.20808 177.22899C 215.53908 177.22499 214.66608 177.16599 213.74408 177.10399C 212.457 177.019 211 176.921 209.444 176.921z" stroke="none" fill="#A7A9AC" fill-rule="nonzero" />
	</g>
	<g transform="matrix(0.39 0 0 0.39 199.9 200.19)">
        <path transform="matrix(1 0 0 1 -255.74 -256.49)"  d="M364.039 478.061L147.415 478.061C 84.966995 478.061 34.161995 427.243 34.161995 364.778L34.161995 364.778L34.161995 148.179C 34.161995 85.725006 84.966995 34.916 147.415 34.916L147.415 34.916L364.039 34.916C 426.498 34.916 477.311 85.726 477.311 148.179L477.311 148.179L477.311 364.778C 477.312 427.242 426.498 478.061 364.039 478.061zM147.415 44.818C 90.426994 44.818 44.063995 91.185 44.063995 148.17801L44.063995 148.17801L44.063995 364.777C 44.063995 421.781 90.426994 468.15802 147.415 468.15802L147.415 468.15802L364.039 468.15802C 421.037 468.15802 467.409 421.781 467.409 364.77704L467.409 364.77704L467.409 148.179C 467.409 91.186005 421.037 44.819 364.039 44.819L364.039 44.819L147.415 44.819z" stroke="none" fill="#A7A9AC" fill-rule="nonzero" />
	</g>
</g>
</svg>