<?xml version="1.0" encoding="UTF-8" standalone="no" ?>
<!DOCTYPE svg PUBLIC "-//W3C//DTD SVG 1.1//EN" "http://www.w3.org/Graphics/SVG/1.1/DTD/svg11.dtd">
<svg xmlns="http://www.w3.org/2000/svg" xmlns:xlink="http://www.w3.org/1999/xlink" version="1.1" width="220" height="220" viewBox="0 0 400 400" xml:space="preserve">
<desc>Created with Fabric.js 3.6.2</desc>
<defs>
</defs>
<g transform="matrix(7.14 0 0 7.14 203.57 150)"  >
<path style="stroke: none; stroke-width: 1; stroke-dasharray: none; stroke-linecap: butt; stroke-dashoffset: 0; stroke-linejoin: miter; stroke-miterlimit: 4; fill: rgb(0,0,0); fill-rule: nonzero; opacity: 1;"  transform=" translate(-14.5, -7)" d="M 4 7 C 4 6.44771 4.44772 6 5 6 H 24 C 24.5523 6 25 6.44771 25 7 C 25 7.55229 24.5523 8 24 8 H 5 C 4.44772 8 4 7.55229 4 7 Z" stroke-linecap="round" />
</g>
<g transform="matrix(7.14 0 0 7.14 175 200)"  >
<path style="stroke: none; stroke-width: 1; stroke-dasharray: none; stroke-linecap: butt; stroke-dashoffset: 0; stroke-linejoin: miter; stroke-miterlimit: 4; fill: rgb(0,0,0); fill-rule: nonzero; opacity: 1;"  transform=" translate(-10.5, -14)" d="M 4 13.9998 C 4 13.4475 4.44772 12.9997 5 12.9997 L 16 13 C 16.5523 13 17 13.4477 17 14 C 17 14.5523 16.5523 15 16 15 L 5 14.9998 C 4.44772 14.9998 4 14.552 4 13.9998 Z" stroke-linecap="round" />
</g>
<g transform="matrix(7.14 0 0 7.14 196.43 250)"  >
<path style="stroke: none; stroke-width: 1; stroke-dasharray: none; stroke-linecap: butt; stroke-dashoffset: 0; stroke-linejoin: miter; stroke-miterlimit: 4; fill: rgb(0,0,0); fill-rule: nonzero; opacity: 1;"  transform=" translate(-13.5, -21)" d="M 5 19.9998 C 4.44772 19.9998 4 20.4475 4 20.9998 C 4 21.552 4.44772 21.9997 5 21.9997 H 22 C 22.5523 21.9997 23 21.552 23 20.9998 C 23 20.4475 22.5523 19.9998 22 19.9998 H 5 Z" stroke-linecap="round" />
</g>
</svg>