<?xml version="1.0" encoding="UTF-8" standalone="no" ?>
<!DOCTYPE svg PUBLIC "-//W3C//DTD SVG 1.1//EN" "http://www.w3.org/Graphics/SVG/1.1/DTD/svg11.dtd">
<svg xmlns="http://www.w3.org/2000/svg" xmlns:xlink="http://www.w3.org/1999/xlink" version="1.1" width="40" height="40" viewBox="0 0 400 400" xml:space="preserve">
<desc>Created with Fabric.js 3.6.2</desc>
<defs>
</defs>
<g transform="matrix(6.25 0 0 6.25 200 200)" id="Cancel"  >
<path style="stroke: none; stroke-width: 1; stroke-dasharray: none; stroke-linecap: butt; stroke-dashoffset: 0; stroke-linejoin: miter; stroke-miterlimit: 4; fill: rgb(18,19,19); fill-rule: evenodd; opacity: 1;"  transform=" translate(-16, -16)" d="M 16 0 C 7.163 0 0 7.163 0 16 c 0 8.836 7.163 16 16 16 c 8.836 0 16 -7.163 16 -16 C 32 7.163 24.836 0 16 0 z M 16 30 C 8.268 30 2 23.732 2 16 C 2 8.268 8.268 2 16 2 s 14 6.268 14 14 C 30 23.732 23.732 30 16 30 z" stroke-linecap="round" />
</g>
<g transform="matrix(6.25 0 0 6.25 200.01 199.92)" id="Cancel"  >
<path style="stroke: none; stroke-width: 1; stroke-dasharray: none; stroke-linecap: butt; stroke-dashoffset: 0; stroke-linejoin: miter; stroke-miterlimit: 4; fill: rgb(18,19,19); fill-rule: evenodd; opacity: 1;"  transform=" translate(-16, -15.99)" d="M 22.729 21.271 l -5.268 -5.269 l 5.238 -5.195 c 0.395 -0.391 0.395 -1.024 0 -1.414 c -0.394 -0.39 -1.034 -0.39 -1.428 0 l -5.231 5.188 l -5.309 -5.31 c -0.394 -0.396 -1.034 -0.396 -1.428 0 c -0.394 0.395 -0.394 1.037 0 1.432 l 5.301 5.302 l -5.331 5.287 c -0.394 0.391 -0.394 1.024 0 1.414 c 0.394 0.391 1.034 0.391 1.429 0 l 5.324 -5.28 l 5.276 5.276 c 0.394 0.396 1.034 0.396 1.428 0 C 23.123 22.308 23.123 21.667 22.729 21.271 z" stroke-linecap="round" />
</g>
</svg>