<?xml version="1.0" standalone="no"?>
<!DOCTYPE svg PUBLIC "-//W3C//DTD SVG 1.0//EN" "http://www.w3.org/TR/2001/REC-SVG-20010904/DTD/svg10.dtd">
<svg xmlns="http://www.w3.org/2000/svg" xmlns:xlink="http://www.w3.org/1999/xlink" id="body_1" width="45" height="45">

<g transform="matrix(0.1125 0 0 0.1125 0 0)">
	<g transform="matrix(7.14 0 0 7.14 200 200)">
        <path transform="matrix(1 0 0 1 -15.99 -16.03)"  d="M24.19 27.11C 23.982683 27.111574 23.780003 27.048674 23.61 26.93L23.61 26.93L14 20.19C 13.759362 20.020359 13.605709 19.753298 13.58 19.460001C 13.552727 19.163456 13.659038 18.870186 13.87 18.660002L13.87 18.660002L16.49 16L12 18.81L14 23.4L14.88 22.52C 15.2693615 22.127878 15.902878 22.12564 16.295 22.515001C 16.687122 22.904362 16.68936 23.537878 16.3 23.93L16.3 23.93L14.3 25.85C 14.065872 26.086514 13.7294235 26.191055 13.402484 26.128878C 13.075545 26.0667 12.8009615 25.84595 12.67 25.54L12.67 25.54L9.78 18.8C 9.5888195 18.344603 9.758743 17.817839 10.179999 17.56L10.179999 17.56L22.7 9.85C 23.132229 9.583957 23.695204 9.683895 24.00945 10.082453C 24.323698 10.48101 24.28954 11.051767 23.93 11.41L23.93 11.41L16.11 19.23L23.550001 24.449999L27.550001 7.449999L5.78 15.55L8.190001 16.55C 8.542564 16.668356 8.800323 16.97259 8.859157 17.339808C 8.91799 17.707024 8.76818 18.076555 8.47024 18.299135C 8.172299 18.521713 7.775452 18.560566 7.4400005 18.4L7.4400005 18.4L2.63 16.45C 2.2415388 16.302656 1.984648 15.930468 1.984648 15.515001C 1.984648 15.099535 2.2415388 14.727345 2.63 14.580001L2.63 14.580001L28.65 5C 28.993042 4.876257 29.376247 4.9490657 29.65 5.19C 29.93351 5.43829 30.053354 5.824883 29.96 6.19L29.96 6.19L25.16 26.34C 25.084831 26.665337 24.852242 26.931686 24.539999 27.05C 24.427488 27.089354 24.309195 27.109632 24.19 27.11z" stroke="none" fill="#000000" fill-rule="nonzero" />
	</g>
</g>
</svg>