<?xml version="1.0" encoding="UTF-8" standalone="no" ?>
<!DOCTYPE svg PUBLIC "-//W3C//DTD SVG 1.1//EN" "http://www.w3.org/Graphics/SVG/1.1/DTD/svg11.dtd">
<svg xmlns="http://www.w3.org/2000/svg" xmlns:xlink="http://www.w3.org/1999/xlink" version="1.1" width="55" height="55" viewBox="0 0 400 400" xml:space="preserve">
<desc>Created with Fabric.js 3.6.2</desc>
<defs>
</defs>
<g transform="matrix(0.39 0 0 0.39 199.98 200)" id="Layer_1"  >
<path style="stroke: none; stroke-width: 1; stroke-dasharray: none; stroke-linecap: butt; stroke-dashoffset: 0; stroke-linejoin: miter; stroke-miterlimit: 4; fill: rgb(0,0,0); fill-rule: nonzero; opacity: 1;"  transform=" translate(-255.95, -256)" d="M 170.2 96 c 14 0 27.7 3.9 39.6 11.3 l 10.3 6.4 l 12 -2 c 8.5 -1.5 17.2 -2.2 25.9 -2.2 c 40.5 0 78.5 15.5 107 43.7 c 28.4 28 44.1 65.3 44.1 104.9 c 0 10.7 -1.2 21.4 -3.5 31.8 l -2.5 11.1 l 5.1 10.2 c 5.1 10.1 7.7 20.9 7.7 32.2 c 0 40.1 -33.3 72.7 -74.2 72.7 c -12.5 0 -24.3 -2.9 -35.2 -8.7 l -9.8 -5.2 l -10.9 2 c -9.1 1.7 -18.5 2.5 -27.8 2.5 c -40.5 0 -78.5 -15.5 -107 -43.7 c -28.4 -28 -44.1 -65.3 -44.1 -104.9 c 0 -10 1 -20.1 3 -29.9 l 2.5 -12.2 l -6.4 -10.7 C 99.5 194.2 96 181.6 96 168.7 C 96 128.6 129.3 96 170.2 96 M 170.2 64 C 111.6 64 64 110.9 64 168.7 c 0 19.4 5.3 37.5 14.6 53 c -2.4 11.7 -3.7 23.9 -3.7 36.3 c 0 99.8 82 180.6 183.1 180.6 c 11.5 0 22.7 -1 33.5 -3 c 15 7.9 32.1 12.4 50.2 12.4 c 58.7 0 106.2 -46.9 106.2 -104.7 c 0 -16.7 -4 -32.5 -11.1 -46.5 c 2.8 -12.5 4.2 -25.4 4.2 -38.7 c 0 -99.7 -82 -180.6 -183.2 -180.6 c -10.7 0 -21.1 0.9 -31.3 2.6 C 210.3 69.9 191 64 170.2 64 L 170.2 64 z" stroke-linecap="round" />
</g>
<g transform="matrix(0.39 0 0 0.39 200.51 200.12)" id="Layer_1"  >
<path style="stroke: none; stroke-width: 1; stroke-dasharray: none; stroke-linecap: butt; stroke-dashoffset: 0; stroke-linejoin: miter; stroke-miterlimit: 4; fill: rgb(0,0,0); fill-rule: nonzero; opacity: 1;"  transform=" translate(-257.3, -256.3)" d="M 351.9 344.1 c -8.5 11.8 -21 21.2 -37.2 27.8 c -16.1 6.6 -35.3 9.9 -57.3 9.9 c -26.3 0 -48.3 -4.6 -65.6 -13.6 c -12.3 -6.6 -22.4 -15.4 -30.2 -26.4 c -7.8 -11 -11.7 -22 -11.7 -32.6 c 0 -6.6 2.6 -12.3 7.6 -17.1 c 5 -4.6 11.5 -7 19.1 -7 c 6.3 0 11.7 1.8 16.1 5.5 c 4.2 3.5 7.8 8.7 10.7 15.5 c 3.3 7.3 6.8 13.5 10.6 18.4 c 3.6 4.7 8.7 8.6 15.3 11.7 c 6.7 3.1 15.6 4.7 26.6 4.7 c 15.1 0 27.5 -3.2 36.8 -9.5 c 9.2 -6.1 13.6 -13.5 13.6 -22.5 c 0 -7.1 -2.3 -12.7 -7.1 -17.1 c -5 -4.6 -11.5 -8.2 -19.6 -10.6 c -8.3 -2.6 -19.6 -5.3 -33.6 -8.2 c -19 -4 -35.1 -8.8 -48 -14.2 c -13.1 -5.5 -23.7 -13.2 -31.5 -22.7 C 159 226.5 155 214.3 155 200 c 0 -13.7 4.2 -25.9 12.4 -36.5 c 8.2 -10.5 20.1 -18.7 35.6 -24.3 c 15.2 -5.6 33.3 -8.4 53.7 -8.4 c 16.4 0 30.7 1.9 42.7 5.5 c 12.1 3.7 22.2 8.7 30.3 14.9 c 8 6.2 14 12.8 17.8 19.7 c 3.8 7 5.7 13.9 5.7 20.6 c 0 6.4 -2.5 12.3 -7.5 17.4 c -5 5.1 -11.3 7.8 -18.8 7.8 c -6.8 0 -12.1 -1.6 -15.8 -4.8 c -3.4 -3 -7 -7.6 -10.9 -14.3 c -4.6 -8.5 -10.1 -15.3 -16.4 -20.1 c -6.2 -4.6 -16.4 -7 -30.6 -7 c -13.1 0 -23.8 2.6 -31.7 7.7 c -7.6 4.9 -11.3 10.6 -11.3 17.3 c 0 4.1 1.2 7.5 3.7 10.5 c 2.6 3.1 6.2 5.9 10.9 8.2 c 4.8 2.4 9.8 4.3 14.7 5.6 c 5.1 1.4 13.6 3.5 25.3 6.1 c 14.9 3.1 28.5 6.7 40.5 10.4 c 12.2 3.9 22.7 8.6 31.3 14.1 c 8.8 5.6 15.7 12.9 20.7 21.5 c 4.9 8.6 7.4 19.4 7.4 31.8 C 364.7 318.7 360.4 332.3 351.9 344.1 z" stroke-linecap="round" />
</g>
</svg>