<?xml version="1.0" encoding="UTF-8" standalone="no" ?>
<!DOCTYPE svg PUBLIC "-//W3C//DTD SVG 1.1//EN" "http://www.w3.org/Graphics/SVG/1.1/DTD/svg11.dtd">
<svg xmlns="http://www.w3.org/2000/svg" xmlns:xlink="http://www.w3.org/1999/xlink" version="1.1" width="400" height="400" viewBox="0 0 400 400" xml:space="preserve">
<desc>Created with Fabric.js 3.6.2</desc>
<defs>
</defs>
<g transform="matrix(0.39 0 0 0.39 199.9 200.19)" id="whatsapp__x2C_"  >
<path style="stroke: none; stroke-width: 1; stroke-dasharray: none; stroke-linecap: butt; stroke-dashoffset: 0; stroke-linejoin: miter; stroke-miterlimit: 4; fill: rgb(0,196,81); fill-rule: nonzero; opacity: 1;"  transform=" translate(-255.74, -256.49)" d="M 492.871 374.948 c 0 65.451 -53.089 118.502 -118.565 118.502 H 137.168 c -65.497 0 -118.566 -53.051 -118.566 -118.502 V 138.009 c 0 -65.451 53.069 -118.483 118.566 -118.483 h 237.137 c 65.477 0 118.565 53.032 118.565 118.483 V 374.948 z" stroke-linecap="round" />
</g>
<g transform="matrix(0.39 0 0 0.39 199.9 200.19)" id="whatsapp__x2C_"  >
<path style="stroke: none; stroke-width: 1; stroke-dasharray: none; stroke-linecap: butt; stroke-dashoffset: 0; stroke-linejoin: miter; stroke-miterlimit: 4; fill: rgb(255,255,255); fill-rule: nonzero; opacity: 1;"  transform=" translate(-255.74, -256.49)" d="M 403.947 252.692 c 0 79.677 -65.149 144.279 -145.524 144.279 c -25.513 0 -49.481 -6.52 -70.342 -17.954 l -80.555 25.57 l 26.265 -77.406 c -13.257 -21.752 -20.881 -47.247 -20.881 -74.509 c 0 -79.682 65.15 -144.284 145.512 -144.284 C 338.798 108.389 403.947 172.991 403.947 252.692 z M 258.423 131.375 c -67.467 0 -122.335 54.419 -122.335 121.317 c 0 26.529 8.665 51.117 23.302 71.114 l -15.274 45.048 l 47.015 -14.945 c 19.316 12.67 42.455 20.074 67.292 20.074 c 67.465 0 122.349 -54.419 122.349 -121.311 C 380.771 185.795 325.888 131.375 258.423 131.375 z M 331.909 285.913 c -0.908 -1.484 -3.282 -2.372 -6.833 -4.127 c -3.569 -1.773 -21.112 -10.336 -24.372 -11.512 c -3.282 -1.177 -5.655 -1.774 -8.049 1.773 c -2.373 3.548 -9.203 11.493 -11.288 13.865 c -2.084 2.353 -4.149 2.643 -7.72 0.887 c -3.569 -1.773 -15.071 -5.515 -28.696 -17.567 c -10.594 -9.367 -17.754 -20.937 -19.838 -24.466 c -2.084 -3.548 -0.212 -5.458 1.564 -7.231 c 1.601 -1.581 3.57 -4.127 5.345 -6.19 c 1.795 -2.063 2.393 -3.529 3.57 -5.901 c 1.196 -2.353 0.598 -4.417 -0.291 -6.19 c -0.887 -1.774 -8.027 -19.169 -11 -26.246 c -2.972 -7.078 -5.943 -5.901 -8.028 -5.901 c -2.084 0 -4.458 -0.309 -6.831 -0.309 c -2.393 0 -6.252 0.887 -9.514 4.436 c -3.281 3.529 -12.48 12.092 -12.48 29.485 c 0 17.414 12.77 34.229 14.564 36.582 c 1.775 2.353 24.663 39.219 60.923 53.393 c 36.279 14.155 36.279 9.431 42.802 8.833 c 6.542 -0.579 21.112 -8.543 24.085 -16.797 C 332.796 294.456 332.796 287.38 331.909 285.913 L 331.909 285.913 z" stroke-linecap="round" />
</g>
<g transform="matrix(0.39 0 0 0.39 199.9 200.19)" id="whatsapp__x2C_"  >
<path style="stroke: none; stroke-width: 1; stroke-dasharray: none; stroke-linecap: butt; stroke-dashoffset: 0; stroke-linejoin: miter; stroke-miterlimit: 4; fill: rgb(167,169,172); fill-rule: nonzero; opacity: 1;"  transform=" translate(-255.74, -256.49)" d="M 258.423 108.389 c 80.375 0 145.524 64.602 145.524 144.304 c 0 79.677 -65.149 144.279 -145.524 144.279 c -25.513 0 -49.481 -6.52 -70.342 -17.954 l -80.555 25.57 l 26.265 -77.406 c -13.257 -21.752 -20.881 -47.247 -20.881 -74.509 C 112.911 172.991 178.061 108.389 258.423 108.389 M 144.116 368.854 l 47.015 -14.945 c 19.316 12.67 42.455 20.074 67.292 20.074 c 67.465 0 122.349 -54.419 122.349 -121.311 c 0 -66.878 -54.884 -121.297 -122.349 -121.297 c -67.467 0 -122.335 54.419 -122.335 121.317 c 0 26.529 8.665 51.117 23.302 71.114 L 144.116 368.854 M 209.444 186.798 c 2.374 0 4.747 0.309 6.831 0.309 c 0.52 0 1.095 -0.073 1.712 -0.073 c 1.855 0 4.085 0.663 6.316 5.975 c 2.973 7.077 10.113 24.472 11 26.246 c 0.889 1.774 1.487 3.838 0.291 6.19 c -1.177 2.372 -1.775 3.837 -3.57 5.901 c -1.775 2.063 -3.744 4.609 -5.345 6.19 c -1.776 1.774 -3.648 3.684 -1.564 7.231 c 2.084 3.529 9.244 15.099 19.838 24.466 c 13.625 12.053 25.126 15.794 28.696 17.567 c 1.529 0.752 2.782 1.129 3.88 1.129 c 1.463 0 2.648 -0.671 3.84 -2.016 c 2.085 -2.372 8.915 -10.317 11.288 -13.865 c 1.354 -2.006 2.7 -2.687 4.209 -2.687 c 1.159 0 2.414 0.401 3.84 0.913 c 3.26 1.176 20.803 9.738 24.372 11.512 c 3.551 1.755 5.925 2.643 6.833 4.127 c 0.887 1.467 0.887 8.543 -2.085 16.816 c -2.973 8.254 -17.543 16.218 -24.085 16.797 c -2.743 0.251 -4.332 1.232 -7.951 1.232 c -4.987 0 -13.828 -1.863 -34.851 -10.065 c -36.26 -14.174 -59.148 -51.04 -60.923 -53.393 c -1.794 -2.353 -14.564 -19.168 -14.564 -36.582 c 0 -17.394 9.2 -25.956 12.48 -29.485 C 203.191 187.685 207.051 186.798 209.444 186.798 M 258.423 98.512 c -41.489 0 -80.5 16.025 -109.847 45.125 c -29.369 29.121 -45.542 67.845 -45.542 109.037 c 0 26.58 6.884 52.621 19.951 75.618 l -24.812 73.123 c -1.197 3.527 -0.308 7.429 2.3 10.089 c 1.887 1.924 4.441 2.962 7.054 2.962 c 0.999 0 2.006 -0.151 2.987 -0.463 l 76.604 -24.316 c 21.938 11.24 46.496 17.163 71.304 17.163 c 41.494 0 80.509 -16.025 109.857 -45.124 c 29.369 -29.12 45.544 -67.842 45.544 -109.032 c 0 -41.201 -16.175 -79.931 -45.544 -109.053 C 338.934 114.538 299.918 98.512 258.423 98.512 L 258.423 98.512 z M 159.744 353.522 l 9 -26.544 c 1.033 -3.048 0.517 -6.408 -1.384 -9.006 c -13.997 -19.122 -21.395 -41.696 -21.395 -65.28 c 0 -61.448 50.449 -111.44 112.458 -111.44 c 62.017 0 112.472 49.983 112.472 111.42 c 0 61.444 -50.455 111.434 -112.472 111.434 c -22.071 0 -43.467 -6.382 -61.875 -18.456 c -1.627 -1.067 -3.514 -1.618 -5.417 -1.618 c -1.004 0 -2.013 0.153 -2.992 0.464 L 159.744 353.522 L 159.744 353.522 z M 209.444 176.921 c -6.202 0 -12.311 2.771 -16.765 7.606 c -0.174 0.187 -0.366 0.389 -0.574 0.608 c -3.974 4.187 -14.532 15.308 -14.532 35.583 c 0 18.713 11.499 35.882 16.522 42.485 c 0.116 0.165 0.285 0.415 0.507 0.742 c 18.287 26.906 41.278 46.775 64.74 55.946 c 24.264 9.467 33.051 10.743 38.446 10.743 c 3.32 0 5.607 -0.551 7.277 -0.954 c 0.772 -0.186 1.192 -0.284 1.575 -0.319 c 4.942 -0.438 11.61 -3.07 17.807 -7.039 c 5.229 -3.35 12.019 -8.887 14.67 -16.247 c 0.633 -1.762 6.021 -17.373 1.244 -25.273 c -0.009 -0.015 -0.018 -0.029 -0.027 -0.044 c -2.262 -3.698 -5.739 -5.359 -9.102 -6.967 c -0.553 -0.264 -1.146 -0.547 -1.78 -0.86 c -0.186 -0.093 -20.995 -10.36 -25.396 -11.948 c -2.032 -0.729 -4.414 -1.499 -7.191 -1.499 c -3.489 0 -8.472 1.221 -12.396 7.039 c -1.398 2.091 -5.313 6.825 -8.464 10.5 c -0.262 -0.114 -0.533 -0.23 -0.814 -0.352 c -4.713 -2.029 -13.483 -5.805 -23.693 -14.837 c -7.369 -6.516 -12.971 -14.333 -16.085 -19.185 c 0.83 -0.94 1.653 -1.933 2.459 -2.907 c 0.55 -0.664 1.098 -1.327 1.628 -1.944 c 2.396 -2.76 3.482 -4.982 4.532 -7.132 c 0.125 -0.254 0.254 -0.52 0.392 -0.797 c 1.66 -3.292 2.943 -8.549 -0.265 -14.992 c -0.643 -1.363 -4.327 -10.245 -6.769 -16.132 c -1.533 -3.695 -2.987 -7.201 -3.979 -9.563 c -3.35 -7.979 -8.539 -12.026 -15.421 -12.026 c -0.639 0 -1.172 0.034 -1.562 0.059 c -0.075 0.005 -0.148 0.01 -0.22 0.014 c -0.669 -0.004 -1.542 -0.063 -2.464 -0.125 C 212.457 177.019 211 176.921 209.444 176.921 L 209.444 176.921 z" stroke-linecap="round" />
</g>
<g transform="matrix(0.39 0 0 0.39 199.9 200.19)" id="whatsapp__x2C_"  >
<path style="stroke: none; stroke-width: 1; stroke-dasharray: none; stroke-linecap: butt; stroke-dashoffset: 0; stroke-linejoin: miter; stroke-miterlimit: 4; fill: rgb(167,169,172); fill-rule: nonzero; opacity: 1;"  transform=" translate(-255.74, -256.49)" d="M 364.039 478.061 H 147.415 c -62.448 0 -113.253 -50.818 -113.253 -113.283 V 148.179 c 0 -62.454 50.805 -113.263 113.253 -113.263 h 216.624 c 62.459 0 113.272 50.81 113.272 113.263 v 216.599 C 477.312 427.242 426.498 478.061 364.039 478.061 z M 147.415 44.818 c -56.988 0 -103.351 46.367 -103.351 103.36 v 216.599 c 0 57.004 46.363 103.381 103.351 103.381 h 216.624 c 56.998 0 103.37 -46.377 103.37 -103.381 V 148.179 c 0 -56.993 -46.372 -103.36 -103.37 -103.36 H 147.415 z" stroke-linecap="round" />
</g>
</svg>