<?xml version="1.0" encoding="UTF-8" standalone="no" ?>
<!DOCTYPE svg PUBLIC "-//W3C//DTD SVG 1.1//EN" "http://www.w3.org/Graphics/SVG/1.1/DTD/svg11.dtd">
<svg xmlns="http://www.w3.org/2000/svg" xmlns:xlink="http://www.w3.org/1999/xlink" version="1.1" width="23" height="23" viewBox="0 0 400 400" xml:space="preserve">
<desc>Created with Fabric.js 3.6.2</desc>
<defs>
</defs>
<g transform="matrix(5.26 0 0 5.26 200 200)" id="Layer_1"  >
<path style="stroke: none; stroke-width: 1; stroke-dasharray: none; stroke-linecap: butt; stroke-dashoffset: 0; stroke-linejoin: miter; stroke-miterlimit: 4; fill: rgb(35,31,32); fill-rule: nonzero; opacity: 1;"  transform=" translate(-19, -34)" d="M 34 0 H 4 C 1.791 0 0 1.791 0 4 v 60 c 0 2.209 1.791 4 4 4 h 30 c 2.209 0 4 -1.791 4 -4 V 4 C 38 1.791 36.209 0 34 0 z M 12 3 h 14 c 0.276 0 0.5 0.224 0.5 0.5 S 26.276 4 26 4 H 12 c -0.276 0 -0.5 -0.224 -0.5 -0.5 S 11.724 3 12 3 z M 19 65 c -1.104 0 -2 -0.896 -2 -2 s 0.896 -2 2 -2 s 2 0.896 2 2 S 20.104 65 19 65 z M 35 59 H 3 V 6 h 32 V 59 z" stroke-linecap="round" />
</g>
</svg>